<?xml version="1.0" encoding="utf-8"?>
<!-- Generator: Adobe Illustrator 19.1.0, SVG Export Plug-In . SVG Version: 6.00 Build 0)  -->
<!DOCTYPE svg PUBLIC "-//W3C//DTD SVG 1.1//EN" "http://www.w3.org/Graphics/SVG/1.1/DTD/svg11.dtd">
<svg version="1.1" id="Layer_1" xmlns="http://www.w3.org/2000/svg" xmlns:xlink="http://www.w3.org/1999/xlink" x="0px" y="0px"
	 viewBox="-43 169.8 525 454.2" style="enable-background:new -43 169.8 525 454.2;" xml:space="preserve">
<g>
	<path d="M467.2,491.3c8.2,0,14.8-6.6,14.8-14.8V193.4c0-13-10.6-23.6-23.6-23.6H-19.4c-13,0-23.6,10.6-23.6,23.6v406.9
		c0,13,10.6,23.6,23.6,23.6h477.7c13,0,23.6-10.6,23.6-23.6v-79.6c0-8.2-6.6-14.8-14.8-14.8s-14.8,6.6-14.8,14.8v73.7H-13.4V287.8
		h465.8v188.7C452.4,484.7,459.1,491.3,467.2,491.3z M411.2,228.8c0-1.6,1.3-2.9,2.9-2.9s2.9,1.3,2.9,2.9s-1.3,2.9-2.9,2.9
		S411.2,230.4,411.2,228.8z M381.6,228.8c0,13,7.7,24.3,18.8,29.4h-43.3c11.1-5.2,18.8-16.4,18.8-29.4s-7.7-24.3-18.8-29.4h43.3
		C389.3,204.6,381.6,215.8,381.6,228.8z M275.5,228.8c0,1.6-1.3,2.9-2.9,2.9s-2.9-1.3-2.9-2.9s1.3-2.9,2.9-2.9
		S275.5,227.2,275.5,228.8z M305.1,228.8c0-13-7.7-24.3-18.8-29.4h43.3c-11.1,5.2-18.8,16.4-18.8,29.4s7.7,24.3,18.8,29.4h-43.3
		C297.4,253.1,305.1,241.8,305.1,228.8z M340.5,228.8c0-1.6,1.3-2.9,2.9-2.9s2.9,1.3,2.9,2.9s-1.3,2.9-2.9,2.9
		C341.8,231.7,340.5,230.4,340.5,228.8z M-13.4,199.4h272.3c-11.1,5.2-18.8,16.4-18.8,29.4s7.7,24.3,18.8,29.4H-13.4V199.4z
		 M427.8,258.3c11.1-5.2,18.8-16.4,18.8-29.4s-7.7-24.3-18.8-29.4h24.6v58.9h-24.6V258.3z"/>
	<path d="M343.4,579.8c17.9,0,32.5-14.6,32.5-32.5s-14.6-32.5-32.5-32.5c-3.7,0-7.3,0.6-10.8,1.9l-38.8-33.1
		c7.4-12.9,11.3-27.5,11.3-42.4c0-5.2-0.5-10.3-1.4-15.4l10.5-3.5c5.7,4.6,12.8,7.2,20.3,7.2c17.9,0,32.5-14.6,32.5-32.5
		s-14.6-32.5-32.5-32.5c-17.3,0-31.5,13.6-32.4,30.7l-8.7,2.9c-12.8-21.9-34.2-36.8-59.1-41.1v-1.8c10.7-5.5,17.7-16.6,17.7-28.9
		c0-17.9-14.6-32.5-32.5-32.5S187,308.4,187,326.3c0,12.3,6.9,23.4,17.7,28.9v1.8c-28.8,5-53.1,24.6-64.3,51.7l-21.5-7.9
		c-2.5-15.5-16-27.4-32.1-27.4c-17.9,0-32.5,14.6-32.5,32.5s14.6,32.5,32.5,32.5c8.6,0,16.8-3.5,22.9-9.4l24.3,8.9
		c0,1.1-0.1,2.3-0.1,3.4c0,22.5,9,44.2,24.8,60.1l-15.8,22.5c-1-0.1-2-0.1-3-0.1c-17.9,0-32.5,14.6-32.5,32.5s14.6,32.5,32.5,32.5
		s32.5-14.6,32.5-32.5c0-5.8-1.6-11.5-4.5-16.5l14.9-21.3c11.4,5.4,24,8.3,36.7,8.3c20.4,0,39.9-7.2,55.4-20.4l37.3,31.9
		c-0.9,2.9-1.3,6-1.3,9.1C310.9,565.2,325.4,579.8,343.4,579.8z M340.5,547.3c0-1.6,1.3-2.9,2.9-2.9s2.9,1.3,2.9,2.9
		c0,1.6-1.3,2.9-2.9,2.9C341.8,550.2,340.5,548.9,340.5,547.3z M219.5,497.1c-30.9,0-56-25.1-56-56s25.1-56,56-56s56,25.1,56,56
		S250.4,497.1,219.5,497.1z M219.5,329c-1.6,0-2.9-1.3-2.9-2.9s1.3-2.9,2.9-2.9c1.6,0,2.9,1.3,2.9,2.9S221.1,329,219.5,329z
		 M142.8,556.1c0,1.6-1.3,2.9-2.9,2.9c-1.6,0-2.9-1.3-2.9-2.9c0-1.6,1.3-2.9,2.9-2.9c0.1,0,0.2,0,0.3,0c0,0,0.1,0,0.1,0.1
		c0.6,0.5,1.3,0.9,2.1,1.2C142.5,554.9,142.8,555.4,142.8,556.1z M331.6,396.9c0-1.6,1.3-2.9,2.9-2.9s2.9,1.3,2.9,2.9
		s-1.3,2.9-2.9,2.9S331.6,398.5,331.6,396.9z M89.7,405.2c-0.1,0.1-0.1,0.3-0.2,0.4c-0.2,0.7-0.4,1.4-0.6,2.1
		c-0.5,0.5-1.2,0.9-2.1,0.9c-1.6,0-2.9-1.3-2.9-2.9s1.3-2.9,2.9-2.9C88.2,402.8,89.4,403.9,89.7,405.2z"/>
	<path d="M113.3,222.9H7.2c-8.2,0-14.8,6.6-14.8,14.8s6.6,14.8,14.8,14.8h106.2c8.2,0,14.8-6.6,14.8-14.8
		C128.1,229.5,121.5,222.9,113.3,222.9z"/>
	<path d="M184.1,222.9h-26.5c-8.2,0-14.8,6.6-14.8,14.8s6.6,14.8,14.8,14.8h26.5c8.2,0,14.8-6.6,14.8-14.8
		C198.9,229.5,192.3,222.9,184.1,222.9z"/>
	<path d="M431.8,302.5h-88.5c-8.2,0-14.8,6.6-14.8,14.8s6.6,14.8,14.8,14.8h88.5c8.2,0,14.8-6.6,14.8-14.8
		C446.6,309.1,440,302.5,431.8,302.5z"/>
	<path d="M431.8,367.5c8.2,0,14.8-6.6,14.8-14.8c0-8.2-6.6-14.8-14.8-14.8h-53.1c-8.2,0-14.8,6.6-14.8,14.8s6.6,14.8,14.8,14.8
		H431.8z"/>
</g>
</svg>
