<?xml version="1.0" encoding="utf-8"?>
<!-- Generator: Adobe Illustrator 21.1.0, SVG Export Plug-In . SVG Version: 6.00 Build 0)  -->
<!DOCTYPE svg PUBLIC "-//W3C//DTD SVG 1.1//EN" "http://www.w3.org/Graphics/SVG/1.1/DTD/svg11.dtd">
<svg version="1.1" id="Layer_1" xmlns="http://www.w3.org/2000/svg" xmlns:xlink="http://www.w3.org/1999/xlink" x="0px" y="0px"
	 viewBox="0 0 55 44.8" style="enable-background:new 0 0 55 44.8;" xml:space="preserve">
<title>LearnPanelIcons</title>
<path d="M27.6,34.3c-5.1,0-9.3-4.1-9.3-9.3s4.1-9.3,9.3-9.3s9.3,4.1,9.3,9.3C36.8,30.1,32.7,34.3,27.6,34.3z M27.6,18.5
	c-3.6,0-6.5,2.9-6.5,6.5c0,3.6,2.9,6.5,6.5,6.5s6.5-2.9,6.5-6.5l0,0C34.1,21.5,31.2,18.5,27.6,18.5L27.6,18.5z"/>
<path d="M48.5,44.8H6.6c-3.6,0-6.6-3-6.6-6.6V14.5c0-3.6,3-6.6,6.6-6.6h6.3c0.3,0,0.6-0.2,0.8-0.5l1.6-4.9C15.8,1,17.1,0.1,18.6,0
	h17.8c1.5,0,2.9,1,3.3,2.4l1.6,4.9c0.1,0.3,0.4,0.5,0.8,0.5h6.3c3.6,0,6.6,3,6.6,6.6v23.7c0.1,3.5-2.7,6.5-6.2,6.6
	C48.7,44.7,48.6,44.8,48.5,44.8z M6.6,10.7c-2.1,0-3.9,1.7-3.9,3.9v23.6c0,2.1,1.7,3.9,3.9,3.9h41.9c2.1,0,3.9-1.7,3.9-3.9V14.5
	c0-2.1-1.7-3.9-3.9-3.9h-6.3c-1.5,0-2.9-1-3.3-2.4l-1.6-4.9c-0.1-0.3-0.4-0.5-0.8-0.5H18.6c-0.3,0-0.6,0.2-0.8,0.5l-1.6,5
	c-0.5,1.4-1.8,2.4-3.3,2.4L6.6,10.7L6.6,10.7z"/>
<path d="M27.6,39.5c-8,0-14.5-6.4-14.6-14.4s6.4-14.5,14.4-14.6c8,0,14.5,6.4,14.6,14.4c0,0,0,0,0,0.1C42,33,35.5,39.5,27.6,39.5z
	 M27.6,13.3c-6.5,0-11.7,5.3-11.7,11.8s5.3,11.7,11.8,11.7c6.5,0,11.7-5.3,11.7-11.8c0,0,0,0,0,0C39.3,18.5,34,13.3,27.6,13.3
	L27.6,13.3z"/>
<path d="M46.7,14.5c1,0,1.8,0.8,1.8,1.8s-0.8,1.8-1.8,1.8s-1.8-0.8-1.8-1.8C44.8,15.4,45.7,14.5,46.7,14.5
	C46.7,14.5,46.7,14.5,46.7,14.5 M46.7,12.5c-2.1,0-3.9,1.7-3.9,3.9s1.7,3.9,3.9,3.9s3.9-1.7,3.9-3.9C50.5,14.3,48.8,12.6,46.7,12.5
	L46.7,12.5z"/>
</svg>
