<?xml version="1.0" encoding="utf-8"?>
<!-- Generator: Adobe Illustrator 21.1.0, SVG Export Plug-In . SVG Version: 6.00 Build 0)  -->
<!DOCTYPE svg PUBLIC "-//W3C//DTD SVG 1.1//EN" "http://www.w3.org/Graphics/SVG/1.1/DTD/svg11.dtd">
<svg version="1.1" id="Layer_1" xmlns="http://www.w3.org/2000/svg" xmlns:xlink="http://www.w3.org/1999/xlink" x="0px" y="0px"
	 viewBox="0 0 379 491" style="enable-background:new 0 0 379 491;" xml:space="preserve">
<g>
	<path d="M375,75.9l-72-72c-2.5-2.6-5.9-4-9.6-4h-248C20.4,0,0,20.4,0,45.5v400C0,470.6,20.4,491,45.5,491h288
		c25.1,0,45.5-20.4,45.5-45.5v-360C379,81.9,377.6,78.5,375,75.9z M307,72V46.1L332.9,72H307z M27,45.5C27,35.3,35.3,27,45.5,27H280
		v58.5c0,7.4,6.1,13.5,13.5,13.5H352v346.5c0,10.2-8.3,18.5-18.5,18.5h-288c-10.2,0-18.5-8.3-18.5-18.5V45.5z"/>
	<path d="M77.5,185.5c19.9,0,36-16.1,36-36s-16.1-36-36-36s-36,16.1-36,36S57.6,185.5,77.5,185.5z M77.5,137.5c6.6,0,12,5.4,12,12
		s-5.4,12-12,12s-12-5.4-12-12S70.9,137.5,77.5,137.5z"/>
	<path d="M77.5,273.5c19.9,0,36-16.1,36-36s-16.1-36-36-36s-36,16.1-36,36S57.6,273.5,77.5,273.5z M77.5,225.5c6.6,0,12,5.4,12,12
		s-5.4,12-12,12s-12-5.4-12-12S70.9,225.5,77.5,225.5z"/>
	<path d="M77.5,361.5c19.9,0,36-16.1,36-36s-16.1-36-36-36s-36,16.1-36,36S57.6,361.5,77.5,361.5z M77.5,313.5c6.6,0,12,5.4,12,12
		s-5.4,12-12,12s-12-5.4-12-12S70.9,313.5,77.5,313.5z"/>
	<path d="M77.5,449.5c19.9,0,36-16.1,36-36s-16.1-36-36-36s-36,16.1-36,36S57.6,449.5,77.5,449.5z M77.5,401.5c6.6,0,12,5.4,12,12
		s-5.4,12-12,12s-12-5.4-12-12S70.9,401.5,77.5,401.5z"/>
	<path d="M127.5,178h204c6.3,0,11.5-5.2,11.5-11.5s-5.2-11.5-11.5-11.5h-204c-6.3,0-11.5,5.2-11.5,11.5S121.2,178,127.5,178z"/>
	<path d="M127.5,265h204c6.3,0,11.5-5.2,11.5-11.5s-5.2-11.5-11.5-11.5h-204c-6.3,0-11.5,5.2-11.5,11.5S121.2,265,127.5,265z"/>
	<path d="M127.5,353h204c6.3,0,11.5-5.2,11.5-11.5s-5.2-11.5-11.5-11.5h-204c-6.3,0-11.5,5.2-11.5,11.5S121.2,353,127.5,353z"/>
	<path d="M127.5,441h204c6.3,0,11.5-5.2,11.5-11.5s-5.2-11.5-11.5-11.5h-204c-6.3,0-11.5,5.2-11.5,11.5S121.2,441,127.5,441z"/>
</g>
</svg>
